<mxfile host="app.diagrams.net" modified="2024-05-18T03:57:10.935Z" agent="Mozilla/5.0 (Windows NT 10.0; Win64; x64) AppleWebKit/537.36 (KHTML, like Gecko) Chrome/124.0.0.0 Safari/537.36 Edg/124.0.0.0" etag="yebPl0vp-6xIzBpLsl_i" version="24.4.4" type="github">
  <diagram name="Page-1" id="58cdce13-f638-feb5-8d6f-7d28b1aa9fa0">
    <mxGraphModel dx="1628" dy="723" grid="1" gridSize="10" guides="1" tooltips="1" connect="1" arrows="1" fold="1" page="1" pageScale="1" pageWidth="1100" pageHeight="850" background="none" math="0" shadow="0">
      <root>
        <mxCell id="0" />
        <mxCell id="1" parent="0" />
        <mxCell id="Y5Z5mM4NJpB_HWJStT9k-1" value="" style="ellipse;html=1;shape=startState;fillColor=#000000;strokeColor=#ff0000;" vertex="1" parent="1">
          <mxGeometry x="335" y="130" width="30" height="30" as="geometry" />
        </mxCell>
        <mxCell id="Y5Z5mM4NJpB_HWJStT9k-2" value="" style="edgeStyle=orthogonalEdgeStyle;html=1;verticalAlign=bottom;endArrow=open;endSize=8;strokeColor=#ff0000;rounded=0;entryX=0.5;entryY=0;entryDx=0;entryDy=0;" edge="1" parent="1" target="Y5Z5mM4NJpB_HWJStT9k-6">
          <mxGeometry relative="1" as="geometry">
            <mxPoint x="395" y="249" as="targetPoint" />
            <mxPoint x="360" y="150" as="sourcePoint" />
            <Array as="points">
              <mxPoint x="350" y="150" />
            </Array>
          </mxGeometry>
        </mxCell>
        <mxCell id="Y5Z5mM4NJpB_HWJStT9k-10" style="edgeStyle=orthogonalEdgeStyle;rounded=0;orthogonalLoop=1;jettySize=auto;html=1;" edge="1" parent="1" source="Y5Z5mM4NJpB_HWJStT9k-6">
          <mxGeometry relative="1" as="geometry">
            <mxPoint x="792.1367390950521" y="340" as="targetPoint" />
          </mxGeometry>
        </mxCell>
        <mxCell id="Y5Z5mM4NJpB_HWJStT9k-15" style="edgeStyle=orthogonalEdgeStyle;rounded=0;orthogonalLoop=1;jettySize=auto;html=1;exitX=1;exitY=0.75;exitDx=0;exitDy=0;" edge="1" parent="1" source="Y5Z5mM4NJpB_HWJStT9k-6">
          <mxGeometry relative="1" as="geometry">
            <mxPoint x="410.33333333333337" y="430" as="targetPoint" />
            <Array as="points">
              <mxPoint x="410" y="270" />
              <mxPoint x="570" y="270" />
              <mxPoint x="570" y="430" />
            </Array>
          </mxGeometry>
        </mxCell>
        <mxCell id="Y5Z5mM4NJpB_HWJStT9k-6" value="Authentication" style="rounded=1;whiteSpace=wrap;html=1;arcSize=40;fontColor=#000000;fillColor=#ffffc0;strokeColor=#ff0000;" vertex="1" parent="1">
          <mxGeometry x="290" y="250" width="120" height="40" as="geometry" />
        </mxCell>
        <mxCell id="Y5Z5mM4NJpB_HWJStT9k-8" value="Withdraw Money" style="rounded=1;whiteSpace=wrap;html=1;arcSize=40;fontColor=#000000;fillColor=#ffffc0;strokeColor=#ff0000;" vertex="1" parent="1">
          <mxGeometry x="290" y="400" width="120" height="40" as="geometry" />
        </mxCell>
        <mxCell id="Y5Z5mM4NJpB_HWJStT9k-9" value="" style="edgeStyle=orthogonalEdgeStyle;html=1;verticalAlign=bottom;endArrow=open;endSize=8;strokeColor=#ff0000;rounded=0;entryX=0.5;entryY=1;entryDx=0;entryDy=0;" edge="1" source="Y5Z5mM4NJpB_HWJStT9k-8" parent="1" target="Y5Z5mM4NJpB_HWJStT9k-12">
          <mxGeometry relative="1" as="geometry">
            <mxPoint x="350" y="680" as="targetPoint" />
            <Array as="points">
              <mxPoint x="350" y="720" />
              <mxPoint x="795" y="720" />
            </Array>
          </mxGeometry>
        </mxCell>
        <mxCell id="Y5Z5mM4NJpB_HWJStT9k-12" value="" style="ellipse;html=1;shape=endState;fillColor=strokeColor;" vertex="1" parent="1">
          <mxGeometry x="780" y="340" width="30" height="30" as="geometry" />
        </mxCell>
        <mxCell id="Y5Z5mM4NJpB_HWJStT9k-16" value="Check Pin" style="text;html=1;align=center;verticalAlign=middle;whiteSpace=wrap;rounded=0;" vertex="1" parent="1">
          <mxGeometry x="430" y="240" width="60" height="30" as="geometry" />
        </mxCell>
        <mxCell id="Y5Z5mM4NJpB_HWJStT9k-17" value="If (incorrect)" style="text;html=1;align=center;verticalAlign=middle;whiteSpace=wrap;rounded=0;" vertex="1" parent="1">
          <mxGeometry x="690" y="240" width="90" height="30" as="geometry" />
        </mxCell>
        <mxCell id="Y5Z5mM4NJpB_HWJStT9k-18" value="Correct" style="text;html=1;align=center;verticalAlign=middle;whiteSpace=wrap;rounded=0;" vertex="1" parent="1">
          <mxGeometry x="510" y="310" width="60" height="30" as="geometry" />
        </mxCell>
        <mxCell id="Y5Z5mM4NJpB_HWJStT9k-19" value="Event" style="text;html=1;align=center;verticalAlign=middle;whiteSpace=wrap;rounded=0;" vertex="1" parent="1">
          <mxGeometry x="420" y="400" width="60" height="30" as="geometry" />
        </mxCell>
        <mxCell id="Y5Z5mM4NJpB_HWJStT9k-20" value="End" style="text;html=1;align=center;verticalAlign=middle;whiteSpace=wrap;rounded=0;" vertex="1" parent="1">
          <mxGeometry x="810" y="350" width="60" height="30" as="geometry" />
        </mxCell>
        <mxCell id="Y5Z5mM4NJpB_HWJStT9k-21" value="Atm Withdraw" style="shape=umlFrame;whiteSpace=wrap;html=1;pointerEvents=0;" vertex="1" parent="1">
          <mxGeometry x="220" y="120" width="720" height="630" as="geometry" />
        </mxCell>
      </root>
    </mxGraphModel>
  </diagram>
</mxfile>
